# xmcd
#
# Track frame offsets: 
#        150
#        22729
#        43216
#        65015
#        89353
#        107908
#        133861
#        155415
#        173381
#        193663
#        212499
#
# Disc length: 3135 seconds
#
# Revision: 2
# Processed by: cddbd v1.5.2PL0 Copyright (c) Steve Scherf et al.
# Submitted via: ExactAudioCopy v0.99pb4
#
DISCID=910c3d0b
DTITLE=Rush - Presto
DYEAR=1989
DGENRE=Progressive Rock
TTITLE0=Show Don't Tell
TTITLE1=Chain Lightning
TTITLE2=The Pass
TTITLE3=War Paint
TTITLE4=Scars
TTITLE5=Presto
TTITLE6=Superconductor
TTITLE7=Anagram (For Monro)
TTITLE8=Red Tide
TTITLE9=Hand Over Fist
TTITLE10=Available Light
EXTD=
EXTT0=
EXTT1=
EXTT2=
EXTT3=
EXTT4=
EXTT5=
EXTT6=
EXTT7=
EXTT8=
EXTT9=
EXTT10=
PLAYORDER=
